<?xml version="1.0" encoding="utf-8"?>
<!-- Generator: Adobe Illustrator 19.0.0, SVG Export Plug-In . SVG Version: 6.00 Build 0)  -->
<svg version="1.1" xmlns="http://www.w3.org/2000/svg" xmlns:xlink="http://www.w3.org/1999/xlink" x="0px" y="0px"
	 viewBox="0 0 200 120.2" style="enable-background:new 0 0 200 120.2;" xml:space="preserve">
<style type="text/css">
	.st0{fill:#FFFFFF;}
</style>
<g id="Layer_2">
</g>
<g id="Layer_3">
	<path id="XMLID_8_" class="st0" d="M100.7,0C47.5,0,14.1,37.5,2.3,53.2c-3.1,4.1-3.1,9.7-0.2,13.9c11.2,15.8,43.4,53.1,98.5,53.1
		c0,0,56.6,3.1,97.2-53.5c2.8-4,2.9-9.3,0.1-13.3C187.1,37.3,154.3,0,100.7,0z M101.5,112c-30.2,1-54.9-23.7-53.9-53.9
		C48.5,30.8,70.8,8.5,98.1,7.6c30.2-1,54.9,23.7,53.9,53.9C151.2,88.9,128.9,111.2,101.5,112z"/>
</g>
<g id="Layer_5">
	<path id="XMLID_4_" class="st0" d="M129,57.8c-14.5,0-26.2-11.7-26.2-26.2c0-2.3,0.3-4.6,0.9-6.8c-1.3-0.1-2.6-0.2-3.9-0.2
		c-19.4,0-35.1,15.7-35.1,35.1C64.7,79.2,80.4,95,99.8,95c19.4,0,35.1-15.7,35.1-35.1c0-0.9,0-1.8-0.1-2.7
		C133,57.6,131,57.8,129,57.8z"/>
</g>
</svg>
