<?xml version="1.0" encoding="utf-8"?>
<!-- Generator: Adobe Illustrator 19.0.0, SVG Export Plug-In . SVG Version: 6.00 Build 0)  -->
<svg version="1.1" id="Layer_1" xmlns="http://www.w3.org/2000/svg" xmlns:xlink="http://www.w3.org/1999/xlink" x="0px" y="0px"
	 viewBox="0 0 200 200" style="enable-background:new 0 0 200 200;" xml:space="preserve">
<style type="text/css">
	.st0{fill:#FFFFFF;}
</style>
<g id="XMLID_1_">
	<g id="XMLID_2_">
		<path id="XMLID_46_" class="st0" d="M177.9,49.6c0,0.6,0,1.3,0,2v76.7c0,12.2-9.9,22.1-22.1,22.1H22.1c0-0.6,0-1.3,0-2V71.7
			c0-12.2,9.9-22.1,22.1-22.1H177.9 M182.4,39.6H44.2c-17.6,0-32.1,14.4-32.1,32.1v76.7c0,6.6-1.2,12,5.4,12h138.2
			c17.6,0,32.1-14.4,32.1-32.1V51.6C187.8,45,189,39.6,182.4,39.6L182.4,39.6z"/>
	</g>
	<g id="XMLID_3_">
		<g id="XMLID_4_">
			<path id="XMLID_5_" class="st0" d="M51.3,117.9V66.5h13.5v20.3h15.8V66.5h13.5v51.4H80.6V98H64.8v19.9H51.3z"/>
			<path id="XMLID_7_" class="st0" d="M105.3,117.9V66.5h20.5c4.2,0,7.8,0.5,10.7,1.6c2.9,1.1,5.3,2.6,7.1,4.7
				c1.8,2.1,3.1,4.7,3.9,7.8c0.8,3.1,1.2,6.7,1.2,10.7c0,4.1-0.4,7.8-1.1,11c-0.8,3.2-2,6-3.7,8.3c-1.7,2.3-4,4.1-6.9,5.3
				c-2.9,1.2-6.4,1.8-10.6,1.8H105.3z M118.8,106.7h6.5c2.1,0,3.8-0.4,5.1-1.1c1.3-0.8,2.3-1.8,2.9-3.2c0.7-1.4,1.1-3,1.3-4.9
				c0.2-1.9,0.3-3.9,0.3-6.1c0-2.1-0.1-4-0.4-5.7c-0.3-1.7-0.7-3.1-1.4-4.4c-0.7-1.2-1.6-2.1-2.9-2.7s-2.9-0.9-5-0.9h-6.5V106.7z"/>
		</g>
		<g id="XMLID_10_">
			<path id="XMLID_11_" class="st0" d="M51.3,133.3v-10.8h4.4c0.9,0,1.7,0.1,2.4,0.3c0.6,0.2,1.1,0.6,1.4,1.1
				c0.3,0.5,0.5,1.3,0.5,2.3c0,0.8-0.1,1.4-0.4,1.9c-0.3,0.5-0.6,0.9-1.1,1.2l1.4,3.9h-2.9l-1.1-3.3h-1.7v3.3H51.3z M54.1,127.7h1.6
				c0.3,0,0.6-0.1,0.7-0.2c0.2-0.1,0.3-0.3,0.4-0.5c0.1-0.2,0.1-0.5,0.1-0.8c0-0.5-0.1-0.9-0.3-1.1c-0.2-0.2-0.6-0.4-1-0.4h-1.5
				V127.7z"/>
			<path id="XMLID_14_" class="st0" d="M61.9,133.3v-10.8h7.6v2.3h-4.7v1.9h3.8v2.3h-3.8v2h4.7v2.3H61.9z"/>
			<path id="XMLID_16_" class="st0" d="M75.4,133.5c-0.5,0-1,0-1.5-0.1c-0.5-0.1-1-0.1-1.5-0.2c-0.5-0.1-0.9-0.2-1.2-0.2l0.1-2.2
				c0.3,0,0.7,0.1,1.2,0.1c0.5,0.1,0.9,0.1,1.4,0.1c0.5,0,0.9,0.1,1.2,0.1c0.5,0,0.8-0.1,1-0.2c0.2-0.2,0.3-0.4,0.3-0.8
				c0-0.2,0-0.3-0.1-0.5c-0.1-0.1-0.2-0.2-0.5-0.3c-0.2-0.1-0.6-0.2-1-0.2c-0.9-0.2-1.6-0.4-2.2-0.6s-0.9-0.6-1.2-1
				c-0.2-0.4-0.4-1-0.4-1.7c0-0.9,0.2-1.6,0.5-2.1c0.3-0.5,0.8-0.9,1.4-1.1c0.6-0.2,1.3-0.3,2.1-0.3c0.4,0,0.8,0,1.3,0.1
				c0.5,0,1,0.1,1.4,0.1c0.5,0.1,0.9,0.1,1.2,0.2l-0.1,2.2c-0.3,0-0.7-0.1-1.1-0.1c-0.4,0-0.9-0.1-1.3-0.1c-0.4,0-0.8,0-1.1,0
				c-0.5,0-0.8,0.1-1,0.2c-0.2,0.1-0.3,0.3-0.3,0.6c0,0.2,0,0.4,0.1,0.5c0.1,0.1,0.3,0.2,0.5,0.3c0.2,0.1,0.6,0.2,1,0.3
				c0.7,0.1,1.3,0.3,1.7,0.5c0.5,0.2,0.8,0.4,1.1,0.6c0.3,0.2,0.5,0.5,0.6,0.9c0.1,0.4,0.2,0.8,0.2,1.4c0,0.9-0.2,1.6-0.5,2.1
				c-0.3,0.5-0.8,0.9-1.4,1.1C76.9,133.4,76.2,133.5,75.4,133.5z"/>
			<path id="XMLID_18_" class="st0" d="M85.8,133.5c-1.2,0-2.1-0.2-2.8-0.6c-0.7-0.4-1.2-1-1.5-1.8c-0.3-0.8-0.5-1.9-0.5-3.1
				c0-1.3,0.2-2.3,0.5-3.2c0.3-0.8,0.8-1.4,1.5-1.9c0.7-0.4,1.6-0.6,2.8-0.6c1.2,0,2.1,0.2,2.8,0.6c0.7,0.4,1.2,1,1.5,1.9
				c0.3,0.8,0.5,1.9,0.5,3.2s-0.2,2.3-0.5,3.2c-0.3,0.8-0.8,1.4-1.5,1.8C88,133.3,87,133.5,85.8,133.5z M85.8,131.1
				c0.6,0,1-0.1,1.3-0.4c0.3-0.2,0.5-0.6,0.6-1.1c0.1-0.5,0.1-1.1,0.1-1.8c0-0.7,0-1.3-0.1-1.8c-0.1-0.5-0.3-0.9-0.6-1.1
				c-0.3-0.2-0.7-0.4-1.3-0.4c-0.5,0-1,0.1-1.2,0.4c-0.3,0.3-0.5,0.6-0.6,1.1c-0.1,0.5-0.1,1.1-0.1,1.8c0,0.7,0,1.3,0.1,1.8
				c0.1,0.5,0.3,0.8,0.6,1.1C84.9,131,85.3,131.1,85.8,131.1z"/>
			<path id="XMLID_21_" class="st0" d="M92.7,133.3v-10.8h2.8v8.5h4v2.3H92.7z"/>
			<path id="XMLID_23_" class="st0" d="M105.5,133.5c-1,0-1.8-0.1-2.4-0.4c-0.7-0.2-1.1-0.6-1.5-1.2s-0.5-1.3-0.5-2.3v-7.1h2.8v7.2
				c0,0.5,0.1,0.8,0.4,1.1s0.7,0.3,1.2,0.3c0.5,0,0.9-0.1,1.2-0.3s0.4-0.6,0.4-1.1v-7.2h2.8v7.1c0,1-0.2,1.7-0.5,2.3
				c-0.3,0.6-0.8,1-1.5,1.2C107.3,133.4,106.5,133.5,105.5,133.5z"/>
			<path id="XMLID_25_" class="st0" d="M114.2,133.3v-8.5h-2.6v-2.3h8v2.3H117v8.5H114.2z"/>
			<path id="XMLID_27_" class="st0" d="M121.3,133.3v-10.8h2.8v10.8H121.3z"/>
			<path id="XMLID_29_" class="st0" d="M131,133.5c-1.2,0-2.1-0.2-2.8-0.6c-0.7-0.4-1.2-1-1.5-1.8c-0.3-0.8-0.5-1.9-0.5-3.1
				c0-1.3,0.2-2.3,0.5-3.2c0.3-0.8,0.8-1.4,1.5-1.9c0.7-0.4,1.6-0.6,2.8-0.6c1.2,0,2.1,0.2,2.8,0.6c0.7,0.4,1.2,1,1.5,1.9
				c0.3,0.8,0.5,1.9,0.5,3.2s-0.2,2.3-0.5,3.2c-0.3,0.8-0.8,1.4-1.5,1.8C133.2,133.3,132.2,133.5,131,133.5z M131,131.1
				c0.6,0,1-0.1,1.3-0.4c0.3-0.2,0.5-0.6,0.6-1.1c0.1-0.5,0.1-1.1,0.1-1.8c0-0.7,0-1.3-0.1-1.8c-0.1-0.5-0.3-0.9-0.6-1.1
				c-0.3-0.2-0.7-0.4-1.3-0.4c-0.5,0-1,0.1-1.2,0.4c-0.3,0.3-0.5,0.6-0.6,1.1c-0.1,0.5-0.1,1.1-0.1,1.8c0,0.7,0,1.3,0.1,1.8
				c0.1,0.5,0.3,0.8,0.6,1.1C130.1,131,130.5,131.1,131,131.1z"/>
			<path id="XMLID_32_" class="st0" d="M137.9,133.3v-10.8h3.2l3.1,6.1h0.3v-6.1h2.8v10.8h-3.2l-3-6.3h-0.3v6.3H137.9z"/>
		</g>
	</g>
</g>
</svg>
