<?xml version="1.0" encoding="utf-8"?>
<!-- Generator: Adobe Illustrator 19.0.0, SVG Export Plug-In . SVG Version: 6.00 Build 0)  -->
<svg version="1.1" xmlns="http://www.w3.org/2000/svg" xmlns:xlink="http://www.w3.org/1999/xlink" x="0px" y="0px"
	 viewBox="0 0 200 200" style="enable-background:new 0 0 200 200;" xml:space="preserve">
<style type="text/css">
	.st0{fill:#FFFFFF;}
</style>
<g id="Layer_1">
</g>
<g id="Layer_2">
	<path id="XMLID_4_" class="st0" d="M132.4,133.1c-36.3-3.4-65.2-32.2-68.8-68.4c-1-10.6,0.1-20.9,3-30.3c1.2-4-3.1-7.5-6.8-5.4
		c-22.3,13-37.5,37-38.1,64.5c-0.9,43.5,34.9,79.3,78.4,78.2c24.7-0.6,46.6-12.9,60.1-31.6c2.8-3.8-0.6-9.1-5.2-8.1
		C147.8,133.4,140.2,133.8,132.4,133.1z"/>
	<path id="XMLID_1_" class="st0" d="M105.9,44.7l4.2,12.8c0.2,0.7,0.8,1.1,1.5,1.1H125c1.5,0,2.2,2,0.9,2.9l-10.9,7.9
		c-0.6,0.4-0.8,1.1-0.6,1.8l4.2,12.8c0.5,1.5-1.2,2.7-2.4,1.8l-10.9-7.9c-0.6-0.4-1.3-0.4-1.9,0l-10.9,7.9c-1.2,0.9-2.9-0.3-2.4-1.8
		l4.2-12.8c0.2-0.7,0-1.4-0.6-1.8l-10.9-7.9c-1.2-0.9-0.6-2.9,0.9-2.9h13.5c0.7,0,1.3-0.4,1.5-1.1l4.2-12.8
		C103.3,43.2,105.4,43.2,105.9,44.7z"/>
	<path id="XMLID_3_" class="st0" d="M157.6,58.6l4.2,12.8c0.2,0.7,0.8,1.1,1.5,1.1h13.5c1.5,0,2.2,2,0.9,2.9l-10.9,7.9
		c-0.6,0.4-0.8,1.1-0.6,1.8l4.2,12.8c0.5,1.5-1.2,2.7-2.4,1.8L157,91.8c-0.6-0.4-1.3-0.4-1.9,0l-10.9,7.9c-1.2,0.9-2.9-0.3-2.4-1.8
		l4.2-12.8c0.2-0.7,0-1.4-0.6-1.8l-10.9-7.9c-1.2-0.9-0.6-2.9,0.9-2.9h13.5c0.7,0,1.3-0.4,1.5-1.1l4.2-12.8
		C155,57.2,157.1,57.2,157.6,58.6z"/>
</g>
</svg>
