<?xml version="1.0" encoding="utf-8"?>
<!-- Generator: Adobe Illustrator 19.0.0, SVG Export Plug-In . SVG Version: 6.00 Build 0)  -->
<svg version="1.1" id="Layer_1" xmlns="http://www.w3.org/2000/svg" xmlns:xlink="http://www.w3.org/1999/xlink" x="0px" y="0px"
	 viewBox="0 0 200 200" style="enable-background:new 0 0 200 200;" xml:space="preserve">
<style type="text/css">
	.st0{fill:#FFFFFF;}
</style>
<g id="XMLID_1_">
	<path id="XMLID_5_" class="st0" d="M117,23.7h-6.9c0-4.8-4.7-8.8-10.6-8.8c-5.8,0-10.6,3.9-10.6,8.8h-6.9c-2.4,0-4.4,2-4.4,4.4
		v13.3c0,2.4,2,4.4,4.4,4.4H117c2.4,0,4.4-2,4.4-4.4V28.1C121.4,25.7,119.4,23.7,117,23.7z"/>
	<g id="XMLID_11_">
		<path id="XMLID_18_" class="st0" d="M132,141.1H68.4c-1.6,0-2.9,1.3-2.9,2.9v14.1c0,1.6,1.3,2.9,2.9,2.9H132
			c1.6,0,2.9-1.3,2.9-2.9V144C134.9,142.4,133.6,141.1,132,141.1z"/>
		<path id="XMLID_21_" class="st0" d="M160.3,36.3h-27.8c-1.8,0-3.3,1.5-3.3,3.3c-0.1,6.5-0.9,11.4-7.8,11.4H77.7
			c-6.9,0-7.8-4.9-7.9-11.3c0-1.9-1.5-3.4-3.4-3.4H39.7c-2.2,0-4,1.8-4,4v140.8c0,2.2,1.8,4,4,4h120.6c2.2,0,4-1.8,4-4V40.3
			C164.3,38.1,162.5,36.3,160.3,36.3z M60.4,69.4c2.8,0,5.1,2.3,5.1,5.1s-2.3,5.1-5.1,5.1c-2.8,0-5.1-2.3-5.1-5.1
			S57.5,69.4,60.4,69.4z M60.4,89.5c2.8,0,5.1,2.3,5.1,5.1c0,2.8-2.3,5.1-5.1,5.1c-2.8,0-5.1-2.3-5.1-5.1
			C55.3,91.8,57.5,89.5,60.4,89.5z M60.4,109.5c2.8,0,5.1,2.3,5.1,5.1c0,2.8-2.3,5.1-5.1,5.1c-2.8,0-5.1-2.3-5.1-5.1
			C55.3,111.8,57.5,109.5,60.4,109.5z M144.7,166.7c0,2.2-1.8,4-4,4H59.2c-2.2,0-4-1.8-4-4v-31.4c0-2.2,1.8-4,4-4h81.6
			c2.2,0,4,1.8,4,4V166.7z M139.6,119.8H80.3c-2.8,0-5.1-2.3-5.1-5.1c0-2.8,2.3-5.1,5.1-5.1h59.3c2.8,0,5.1,2.3,5.1,5.1
			C144.7,117.5,142.5,119.8,139.6,119.8z M139.6,99.7H80.3c-2.8,0-5.1-2.3-5.1-5.1c0-2.8,2.3-5.1,5.1-5.1h59.3
			c2.8,0,5.1,2.3,5.1,5.1C144.7,97.4,142.5,99.7,139.6,99.7z M139.6,79.7H80.3c-2.8,0-5.1-2.3-5.1-5.1s2.3-5.1,5.1-5.1h59.3
			c2.8,0,5.1,2.3,5.1,5.1S142.5,79.7,139.6,79.7z"/>
	</g>
</g>
</svg>
