<?xml version="1.0" encoding="utf-8"?>
<!-- Generator: Adobe Illustrator 19.0.0, SVG Export Plug-In . SVG Version: 6.00 Build 0)  -->
<svg version="1.1" id="Layer_1" xmlns="http://www.w3.org/2000/svg" xmlns:xlink="http://www.w3.org/1999/xlink" x="0px" y="0px"
	 viewBox="0 0 200 200" style="enable-background:new 0 0 200 200;" xml:space="preserve">
<style type="text/css">
	.st0{fill:#FFFFFF;}
</style>
<g id="XMLID_6_">
	<path id="XMLID_41_" class="st0" d="M100.1,20.9c1.2,0,2.5,0.5,3.4,1.5c13.8,14.7,64.5,18.6,65.3,19c0,117.7-68.8,137.4-68.8,137.4
		S31.3,159.1,31.3,41.4c0.8-0.4,51.5-4.3,65.3-19C97.6,21.4,98.8,20.9,100.1,20.9 M100.1,10.9c-4,0-7.9,1.7-10.7,4.6
		c-2.8,3-14,10.6-56.4,15.5c-3.4,0.4-4.5,0.5-6.2,1.4c-3.4,1.7-5.5,5.2-5.5,8.9c0,28,3.8,53,11.3,74.5c6.1,17.5,14.7,32.6,25.5,45
		c18.9,21.6,38.3,27.4,39.2,27.6c0.9,0.3,1.8,0.4,2.8,0.4c0.9,0,1.9-0.1,2.8-0.4c0.8-0.2,20.2-6,39.2-27.6
		c10.8-12.4,19.4-27.5,25.5-45c7.5-21.4,11.3-46.5,11.3-74.5c0-3.8-2.1-7.3-5.5-8.9c-1.7-0.8-2.7-1-6.2-1.4
		c-42.4-4.9-53.5-12.5-56.4-15.5C108,12.6,104.1,10.9,100.1,10.9L100.1,10.9z"/>
</g>
<path id="XMLID_60_" class="st0" d="M120.9,99.7L98.4,59.9L77.2,103c-0.2,0.4-0.4,0.9-0.5,1.4c-1.3,3.1-2,6.4-2,10
	c0,14,11.4,25.4,25.4,25.4c14,0,25.4-11.4,25.4-25.4C125.5,108.9,123.8,103.9,120.9,99.7z M99.7,130.9c-1.4,0.3-2.9,0.4-4.4,0.2
	c-6.6-0.7-11.9-6-12.5-12.5c-0.2-2.4,0.1-4.6,0.9-6.7c0.3-0.9,1.6-0.7,1.6,0.3c0,0.7,0.1,1.5,0.2,2.3c1.1,7.1,6.8,12.8,13.9,13.9
	c0.1,0,0.1,0,0.2,0C101,128.6,101.1,130.6,99.7,130.9z"/>
</svg>
